/* XPM */
static char *result[] = {
/* columns rows colors chars-per-pixel */
"32 32 18 1 ",
"  c #231816",
". c #212437",
"X c #222536",
"o c #202539",
"O c #222538",
"+ c #232639",
"@ c #45576F",
"# c #46586E",
"$ c #465771",
"% c #445870",
"& c #465870",
"* c #475971",
"= c #668599",
"- c #66859A",
"; c #67869B",
": c #9BCECF",
"> c #9BCED1",
", c #E5F3F4",
/* pixels */
"O,:>>---O,:>>---O,:>>---O,:>>---",
"O>&&#&*&O>&&#&*&O>&&#&*&O>&&#&*&",
"O>&&&&&$O>&&&&&$O>&&&&&$O>&&&&&$",
" >$&&&&* >$&&&&* >$&&&&* >$&&&&*",
".-&&&@#&.-&&&@#&.-&&&@#&.-&&&@#&",
"X=&@&&%&X=&@&&%&X=&@&&%&X=&@&&%&",
"o;@@&&&&o;@@&&&&o;@@&&&&o;@@&&&&",
" OOO O+O OOO O+O OOO O+O OOO O+O",
"O,:>>---O,:>>---O,:>>---O,:>>---",
"O>&&#&*&O>&&#&*&O>&&#&*&O>&&#&*&",
"O>&&&&&$O>&&&&&$O>&&&&&$O>&&&&&$",
" >$&&&&* >$&&&&* >$&&&&* >$&&&&*",
".-&&&@#&.-&&&@#&.-&&&@#&.-&&&@#&",
"X=&@&&%&X=&@&&%&X=&@&&%&X=&@&&%&",
"o;@@&&&&o;@@&&&&o;@@&&&&o;@@&&&&",
" OOO O+O OOO O+O OOO O+O OOO O+O",
"O,:>>---O,:>>---O,:>>---O,:>>---",
"O>&&#&*&O>&&#&*&O>&&#&*&O>&&#&*&",
"O>&&&&&$O>&&&&&$O>&&&&&$O>&&&&&$",
" >$&&&&* >$&&&&* >$&&&&* >$&&&&*",
".-&&&@#&.-&&&@#&.-&&&@#&.-&&&@#&",
"X=&@&&%&X=&@&&%&X=&@&&%&X=&@&&%&",
"o;@@&&&&o;@@&&&&o;@@&&&&o;@@&&&&",
" OOO O+O OOO O+O OOO O+O OOO O+O",
"O,:>>---O,:>>---O,:>>---O,:>>---",
"O>&&#&*&O>&&#&*&O>&&#&*&O>&&#&*&",
"O>&&&&&$O>&&&&&$O>&&&&&$O>&&&&&$",
" >$&&&&* >$&&&&* >$&&&&* >$&&&&*",
".-&&&@#&.-&&&@#&.-&&&@#&.-&&&@#&",
"X=&@&&%&X=&@&&%&X=&@&&%&X=&@&&%&",
"o;@@&&&&o;@@&&&&o;@@&&&&o;@@&&&&",
" OOO O+O OOO O+O OOO O+O OOO O+O"
};
