/* XPM */
static char *result[] = {
/* columns rows colors chars-per-pixel */
"32 32 84 1 ",
"  c #270D0C",
". c #290D0A",
"X c #280C0B",
"o c #2A0C0A",
"O c #280B0D",
"+ c #290D0C",
"@ c #2A0E0D",
"# c #290C0E",
"$ c #2B0D0F",
"% c #491613",
"& c #481514",
"* c #4B1515",
"= c #481615",
"- c #491615",
"; c #4A1716",
": c #4C2717",
"> c #4E2716",
", c #4E2718",
"< c #4E261A",
"1 c #4F271B",
"2 c #4D2818",
"3 c #512719",
"4 c #A65321",
"5 c #A55122",
"6 c #A55123",
"7 c #A45222",
"8 c #A55323",
"9 c #A65223",
"0 c #A65224",
"q c #A75324",
"w c #A65425",
"e c #A85221",
"r c #A85123",
"t c #A95224",
"y c #B55B29",
"u c #B75B28",
"i c #B75B2A",
"p c #B65C28",
"a c #B45C2A",
"s c #B65C2A",
"d c #B75D2B",
"f c #B45C2C",
"g c #BE792C",
"h c #C1772C",
"j c #C0792B",
"k c #C0782C",
"l c #C1792D",
"z c #C0782E",
"x c #CB8E4D",
"c c #CC8F4E",
"v c #CE8E4E",
"b c #CD904F",
"n c #7B919F",
"m c #7B90A1",
"M c #7B92A0",
"N c #7B92A2",
"B c #7C92A0",
"V c #7C91A2",
"C c #7E91A2",
"Z c #7D92A3",
"A c #7C91A4",
"S c #7E90A4",
"D c #7E9FAE",
"F c #7E9FB0",
"G c #7FA1AD",
"H c #7DA1AF",
"J c #7FA0AF",
"K c #7FA0B1",
"L c #80A0AD",
"P c #80A0AF",
"I c #80A1B0",
"U c #AEB8C1",
"Y c #AFBAC0",
"T c #AFB9C2",
"R c #AFB9C3",
"E c #ADBAC2",
"W c #B0B9C0",
"Q c #B0B8C2",
"! c #B1B9C3",
"~ c #B0BAC3",
"^ c #B3C6CD",
"/ c #B4C5CD",
"( c #B4C5CF",
") c #B5C6CE",
/* pixels */
"T^/^TTTTRTETTVVm+spkbcxkkjkksss7",
"TT~TRTRTTTT~JDVV-ykklkkgkky59999",
"TTTYTTTTQRHJJJJV-ssssssss9994999",
"JJJJIJHGIJPJHGVN-0dssfsss8999w5r",
"BVVHJJILJJBBVVVV-9sysssss9090999",
"VVVNVVmVVVBVVVNV-995ssa999999949",
"VVVABVVVVVVAVVZV+49r9rr4q99r949r",
"++,,-+#+++X.--&++ --++++++--:,-+",
"T(/TRTTTTV-cckkzkdyssps+lkvcxckk",
"TTTTTTUJJV&hkjkksssssss-ssskkkkl",
"JPJJPJJHAZ-sssisss5994928sssssss",
"AVJJPHVVNV-ssssp94qr599,99999999",
"VVVVVVVNVV*595999999999,9449r994",
"VVVVVVVVVC+989q9944999q;96999955",
"VVVmVVVVZA+999etr9rr999#98999499",
"+X.+--++X+++---+++++++ o+#%,-++@",
"TT)/^TTETTRTVVVV+kkcccchjkks9889",
"TTWTTTTTUTTETVVN+yskgzkkkkglsssd",
"TTTT~!TFJJIIVVBV;99piupkkksyasss",
"VIJJJGHJKJDJJVVN-sssss9999959949",
"ZNVCIJJJANCVBVVV-9999999999rr999",
"VVVVVZVVVVmVZVVV-999999999999990",
"VAVVVVVVVVVVVVVV 9499999999r9999",
"+X-*+++++-*-,,X+.++=-+$ +X&,>,-+",
"TTTTTTTTTTTRUTTT~TTTTTTTYTTTTTTY",
"JJJJJJJJJHJJJJJIIJJJJJJKJJIJJJJI",
"VVVVVVVVVVZVZVVVmVVVVVNVVVVVVVVV",
"VVVVVVVVBVAVVVVZNVCVVMVZnVVmVVZV",
"VVVVVVVVVVCVmVmVCVVVVVVVVAVVVZVV",
"VVVVVVVVVVVVVVVVVVVVVVVVVVVVVVVV",
"VVVVVVVVVZVVVVVCVZVVVVVVVBVVVVZS",
"++++++++X+*-<>3+. %1-#O++%,,,*-+"
};
