/* XPM */
static char *result[] = {
/* columns rows colors chars-per-pixel */
"32 32 68 1 ",
"  c #260C0B",
". c #270D0C",
"X c #290D0A",
"o c #280C0B",
"O c #2A0C0A",
"+ c #290D0C",
"@ c #2A0C0C",
"# c #2A0E0D",
"$ c #290C0E",
"% c #2B0D0F",
"& c #491613",
"* c #481514",
"= c #4B1515",
"- c #481615",
"; c #491615",
": c #491517",
"> c #4A1716",
", c #4C2717",
"< c #4E2716",
"1 c #4E2718",
"2 c #4D2818",
"3 c #4F2819",
"4 c #A75120",
"5 c #A55220",
"6 c #A55321",
"7 c #A65321",
"8 c #A55122",
"9 c #A55123",
"0 c #A45222",
"q c #A55323",
"w c #A65223",
"e c #A75422",
"r c #A65224",
"t c #A75324",
"y c #A65424",
"u c #A65425",
"i c #A85221",
"p c #A85123",
"a c #A95224",
"s c #B55B29",
"d c #B75B28",
"f c #B75B2A",
"g c #B65C28",
"h c #B75D29",
"j c #B45C2A",
"k c #B65C2A",
"l c #B75D2B",
"z c #B65B2C",
"x c #B45C2C",
"c c #B85C2B",
"v c #BF772B",
"b c #BD782B",
"n c #BF782A",
"m c #BE792C",
"M c #C1772C",
"N c #C1782B",
"B c #C0792B",
"V c #C0782C",
"C c #C1792D",
"Z c #C17A2C",
"A c #C0782E",
"S c #CB8E4D",
"D c #CC8F4C",
"F c #CC8F4E",
"G c #CE8E4E",
"H c #CB904E",
"J c #CD904F",
"K c #CC914F",
/* pixels */
"+VFFFVVVVbVVBkkk+kgVJFSVVBVVkkk0",
"=sVMVCmNVVZCVVkw;sVVCVVmVVs8wwww",
"*kfkkkkkkfwwwwww;kkkkkkkkwww7www",
"1wkklwwqqwwwwwww;rlkkxkkkqwwwu8p",
";w88tw78wwwwwtww;wkskkkkkwrwrwww",
";wwpwwwwwwwwwwww;ww8kkjwwwwwww7w",
"+wwwppwwwryw7qww+7wpwpp7twwpw7wp",
"+o11;++o+#++;;:++.;;++++++;;,1;+",
"VVVVzkkoMFFHSVVVVlskkgk+CVGFSFVV",
"kkwtwwq;kVVnVVMVkkkkkkk;kkkVVVVC",
"wwwwrtw*kkkkkkkzkk8ww7w2qkkkkkkk",
"wwwwwww;wwlkkkkkw7tp8ww1wwwwwwww",
"t6pww7w;ww8wwwwwwwwwwww1w77wpww7",
"wpwqt79;wwww8wwrw77wwwt>w9wwww88",
"wwwwwww+wwawwwwwpwppwww$wqwww7ww",
"++o+;;++++++;;&o++++++.O+$&1;++#",
"+kVDFFHVVCVVzkj7+VVFFFFMBVVkwqqw",
";VVVVVVvVkgwwwkj+skVmAVVVVmCkkkl",
";wkfklwwkkwwqwww>wwgfdgVVVksjkkk",
":wwtwwwwtrwwwwww;kkkkkwwwww8ww7w",
"=wpwwwrwpwpww7ww;wwwwwwwwwwppwww",
"*wqqww5wtqwwwwwi;wwwwwwwwwwwwwwr",
"+wwwwwwwwt6eww7w.w7wwwwwwwwpwwww",
"+.;;+++++*;=1<+oX++-;+%.+o*1<1;+",
"rkkwwwt+VKFFFFFVVVkwww8+pVFFVkkr",
"Mvwwwwp;kVVVVVMVVMVVlww;VVVVVVVV",
"kkkkwww1wrklkkVmmVkkwww1wgckkkkk",
"wtwwwpw17qwgkwwwwwprpwp1wkskfkhk",
"w7wwwwt;wwpwwwwwwwwww8w;wwlkzwww",
"wwpqww7;wwp0wtrw8wqwwww;wwwwwrw4",
"wwwwrwworwwwwwwwww8weww+qwwqw7rw",
"+++++++@+.;-311+$ ;1;@+@+=212=;+"
};
