/* XPM */
static char *result[] = {
/* columns rows colors chars-per-pixel */
"60 60 46 1 ",
"  c black",
". c #0A0C0E",
"X c #0A0E0F",
"o c #28313B",
"O c #28323B",
"+ c #28323C",
"@ c #2A373D",
"# c #2A353E",
"$ c #2B3A3E",
"% c #2C3A3E",
"& c #2C3B3E",
"* c #2C3B3F",
"= c #2E3D3E",
"- c #2D3C40",
"; c #2E3D41",
": c #3E5359",
"> c #3E5459",
", c #A2C8EF",
"< c #A3C9F1",
"1 c #A3CAF1",
"2 c #ABD3FC",
"3 c #ACD5FD",
"4 c #ADD7FE",
"5 c #ADD7FF",
"6 c #ADE7F4",
"7 c #ACE0F8",
"8 c #ADE1FA",
"9 c #B5E1FF",
"0 c #B0EBFA",
"q c #B1ECFC",
"w c #B1EDFC",
"e c #B2EFFD",
"r c #B2EEFE",
"t c #B3EFFF",
"y c #B5ECFE",
"u c #B3F1FF",
"i c #B4F1FF",
"p c #B9F7FC",
"a c #B9F7FF",
"s c #BAF9FE",
"d c #BAF9FF",
"f c #BBF9FF",
"g c #BBFCFF",
"h c #BDFDFF",
"j c #C3FFFF",
"k c None",
/* pixels */
"                                                            ",
" X;$%%%%%%%%%%%%%%%%%%%%%%%%%%%%%%%%%%%%%%%%%%%%%%%%%%*@o#. ",
" =jpsffffffffffffffffffffffffffffffffffffffffffffffffdgy29# ",
" $a0qwwwwwwwwwwwwwwwwwwwwwwwwwwwwwwwwwwwwwwwwwwwwwwwwqe7,3O ",
" %dqrrrrrrrrrrrrrrrrrrrrrrrrrrrrrrrrrrrrrrrrrrrrrrrrrru8<4+ ",
" %fwrttttttttttttttttttttttttttttttttttttttttttttttttru815+ ",
" %fwrttttttttttttttttttttttttttttttttttttttttttttttttru815+ ",
" %fwrttttttttttttttttttttttttttttttttttttttttttttttttru815+ ",
" %fwrttttttttttttttttttttttttttttttttttttttttttttttttru815+ ",
" %fwrttttttttttttttttttttttttttttttttttttttttttttttttru815+ ",
" %fwrttttttttttttttttttttttttttttttttttttttttttttttttru815+ ",
" %fwrttttttttttttttttttttttttttttttttttttttttttttttttru815+ ",
" %fwrttttttttttttttttttttttttttttttttttttttttttttttttru815+ ",
" %fwrttttttttttttttttttttttttttttttttttttttttttttttttru815+ ",
" %fwrttttttttttttttttttttttttttttttttttttttttttttttttru815+ ",
" %fwrttttttttttttttttttttttttttttttttttttttttttttttttru815+ ",
" %fwrttttttttttttttttttttttttttttttttttttttttttttttttru815+ ",
" %fwrttttttttttttttttttttttttttttttttttttttttttttttttru815+ ",
" %fwrttttttttttttttttttttttttttttttttttttttttttttttttru815+ ",
" %fwrttttttttttttttttttttttttttttttttttttttttttttttttru815+ ",
" %fwrttttttttttttttttttttttttttttttttttttttttttttttttru815+ ",
" %fwrttttttttttttttttttttttttttttttttttttttttttttttttru815+ ",
" %fwrttttttttttttttttttttttttttttttttttttttttttttttttru815+ ",
" %fwrttttttttttttttttttttttttttttttttttttttttttttttttru815+ ",
" %fwrttttttttttttttttttttttttttttttttttttttttttttttttru815+ ",
" &fwrttttttttttttttttttttttttttttttttttttttttttttttttru815+ ",
" -fwrttttttttttttttttttttttttttttttttttttttttttttttttru815+ ",
" %fwrttttttttttttttttttttttttttttttttttttttttttttttttru815+ ",
" >hqrttttttttttttttttttttttttttttttttttttttttttttttttru815+ ",
"k6irtttttttttttttttttttttttttttttttttttttttttttttttttru815+ ",
"k6irtttttttttttttttttttttttttttttttttttttttttttttttttru815+ ",
" :hqrttttttttttttttttttttttttttttttttttttttttttttttttru815+ ",
" %fwrttttttttttttttttttttttttttttttttttttttttttttttttru815+ ",
" -fwrttttttttttttttttttttttttttttttttttttttttttttttttru815+ ",
" &fwrttttttttttttttttttttttttttttttttttttttttttttttttru815+ ",
" %fwrttttttttttttttttttttttttttttttttttttttttttttttttru815+ ",
" %fwrttttttttttttttttttttttttttttttttttttttttttttttttru815+ ",
" %fwrttttttttttttttttttttttttttttttttttttttttttttttttru815+ ",
" %fwrttttttttttttttttttttttttttttttttttttttttttttttttru815+ ",
" %fwrttttttttttttttttttttttttttttttttttttttttttttttttru815+ ",
" %fwrttttttttttttttttttttttttttttttttttttttttttttttttru815+ ",
" %fwrttttttttttttttttttttttttttttttttttttttttttttttttru815+ ",
" %fwrttttttttttttttttttttttttttttttttttttttttttttttttru815+ ",
" %fwrttttttttttttttttttttttttttttttttttttttttttttttttru815+ ",
" %fwrttttttttttttttttttttttttttttttttttttttttttttttttru815+ ",
" %fwrttttttttttttttttttttttttttttttttttttttttttttttttru815+ ",
" %fwrttttttttttttttttttttttttttttttttttttttttttttttttru815+ ",
" %fwrttttttttttttttttttttttttttttttttttttttttttttttttru815+ ",
" %fwrttttttttttttttttttttttttttttttttttttttttttttttttru815+ ",
" %fwrttttttttttttttttttttttttttttttttttttttttttttttttru815+ ",
" %fwrttttttttttttttttttttttttttttttttttttttttttttttttru815+ ",
" %fwrttttttttttttttttttttttttttttttttttttttttttttttttru815+ ",
" %fwrttttttttttttttttttttttttttttttttttttttttttttttttru815+ ",
" %fwrttttttttttttttttttttttttttttttttttttttttttttttttru815+ ",
" %fwrttttttttttttttttttttttttttttttttttttttttttttttttru815+ ",
" %dqrrrrrrrrrrrrrrrrrrrrrrrrrrrrrrrrrrrrrrrrrrrrrrrrrru8<4+ ",
" $a0qwwwwwwwwwwwwwwwwwwwwwwwwwwwwwwwwwwwwwwwwwwwwwwwwqe7,3O ",
" =jpsffffffffffffffffffffffffffffffffffffffffffffffffdgy29# ",
" X;$%%%%%%%%%%%%%%%%%%%%%%%%%%%%%%%%%%%%%%%%%%%%%%%%%%*@o#. ",
"                                                            "
};
