/* XPM */
static char *result[] = {
/* columns rows colors chars-per-pixel */
"60 60 62 1 ",
"  c black",
". c #040301",
"X c #0F0902",
"o c #0F0A05",
"O c #3E250A",
"+ c #3F250A",
"@ c #3E250B",
"# c #3E270A",
"$ c #362412",
"% c #3E2914",
"& c #3E2915",
"* c #3E2A15",
"= c #3F2A15",
"- c #3E2C16",
"; c #40260A",
": c #41270A",
"> c #4C2D0C",
", c #5C370F",
"< c #402B15",
"1 c #412C16",
"2 c #6E4A25",
"3 c #E48826",
"4 c #FA9528",
"5 c #F9972A",
"6 c #FC9528",
"7 c #FC9628",
"8 c #FE9728",
"9 c #FE9729",
"0 c #FF982A",
"q c #FF9A2A",
"w c #FC9D2A",
"e c #FF9D2B",
"r c #FC982D",
"t c #FE992D",
"y c #FF992D",
"u c #FF9E2C",
"i c #FFA02C",
"p c #FFA12C",
"a c #FEA02F",
"s c #FFA62E",
"d c #CF8B46",
"f c #FCA852",
"g c #FEA953",
"h c #FFA953",
"j c #FAA854",
"k c #FCA955",
"l c #FDA955",
"z c #FDAA55",
"x c #FEAA55",
"c c #FFAA55",
"v c #FEAB56",
"b c #FFAB56",
"n c #FFAF58",
"m c #FFB157",
"M c #FCB159",
"N c #FFB159",
"B c #FEB259",
"V c #FFB259",
"C c #FFB25A",
"Z c #FFB45A",
"A c #FFBA5D",
"S c None",
/* pixels */
"      .SS                                                   ",
" o1&<$2Cd**=******************************************%@O:X ",
" -AMBVZcnZVVVVVVVVVVVVVVVVVVVVVVVVVVVVVVVVVVVVVVVVVVVCmaws# ",
" &Njkkkbzklkkkkkkkkkkkkkkkkkkkkkkkkkkkkkkkkkkkkkkkkkkkfr4eO ",
" *Vkxxxbvxxxxxxxxxxxxxxxxxxxxxxxxxxxxxxxxxxxxxxxxxxxxvgt7uO ",
" *Vkxbbbbbbbbbbbbbbbbbbbbbbbbbbbbbbbbbbbbbbbbbbbbbbbcbht7uO ",
" *Vkxbbbbbbbbbbbbbbbbbbbbbbbbbbbbbbbbbbbbbbbbbbbbbbbcbht7uO ",
" *Vkxbbbbbbbbbbbbbbbbbbbbbbbbbbbbbbbbbbbbbbbbbbbbbbbcbht7uO ",
" *Vkxbbbbbbbbbbbbbbbbbbbbbbbbbbbbbbbbbbbbbbbbbbbbbbbcbht7uO ",
" *Vkxbbbbbbbbbbbbbbbbbbbbbbbbbbbbbbbbbbbbbbbbbbbbbbbcbht7uO ",
" *Vkxbbbbbbbbbbbbbbbbbbbbbbbbbbbbbbbbbbbbbbbbbbbbbbbcbht7uO ",
" *Vkxbbbbbbbbbbbbbbbbbbbbbbbbbbbbbbbbbbbbbbbbbbbbbbbcbht7uO ",
" *Vkxbbbbbbbbbbbbbbbbbbbbbbbbbbbbbbbbbbbbbbbbbbbbbbbcbht7uO ",
" *Vkxbbbbbbbbbbbbbbbbbbbbbbbbbbbbbbbbbbbbbbbbbbbbbbbcbht7uO ",
" *Vkxbbbbbbbbbbbbbbbbbbbbbbbbbbbbbbbbbbbbbbbbbbbbbbbcbht7uO ",
" *Vkxbbbbbbbbbbbbbbbbbbbbbbbbbbbbbbbbbbbbbbbbbbbbbbbcbht7uO ",
" *Vkxbbbbbbbbbbbbbbbbbbbbbbbbbbbbbbbbbbbbbbbbbbbbbbbcbht7uO ",
" *Vkxbbbbbbbbbbbbbbbbbbbbbbbbbbbbbbbbbbbbbbbbbbbbbbbcbht7uO ",
" *Vkxbbbbbbbbbbbbbbbbbbbbbbbbbbbbbbbbbbbbbbbbbbbbbbbcbht7uO ",
" *Vkxbbbbbbbbbbbbbbbbbbbbbbbbbbbbbbbbbbbbbbbbbbbbbbbcbht7uO ",
" *Vkxbbbbbbbbbbbbbbbbbbbbbbbbbbbbbbbbbbbbbbbbbbbbbbbcbht7uO ",
" *Vkxbbbbbbbbbbbbbbbbbbbbbbbbbbbbbbbbbbbbbbbbbbbbbbbcbht7uO ",
" *Vkxbbbbbbbbbbbbbbbbbbbbbbbbbbbbbbbbbbbbbbbbbbbbbbbcbht7uO ",
" *Vkxbbbbbbbbbbbbbbbbbbbbbbbbbbbbbbbbbbbbbbbbbbbbbbbcbht7uO ",
" *Vkxbbbbbbbbbbbbbbbbbbbbbbbbbbbbbbbbbbbbbbbbbbbbbbbcbht7uO ",
" *Vkxbbbbbbbbbbbbbbbbbbbbbbbbbbbbbbbbbbbbbbbbbbbbbbbcbht7uO ",
" *Vkxbbbbbbbbbbbbbbbbbbbbbbbbbbbbbbbbbbbbbbbbbbbbbbbcbht7uO ",
" *Vkxbbbbbbbbbbbbbbbbbbbbbbbbbbbbbbbbbbbbbbbbbbbbbbbcbht7uO ",
" *Vkxbbbbbbbbbbbbbbbbbbbbbbbbbbbbbbbbbbbbbbbbbbbbbbbcbht7uO ",
" *Vkxbbbbbbbbbbbbbbbbbbbbbbbbbbbbbbbbbbbbbbbbbbbbbbbcbht7uO ",
" *Vkxbbbbbbbbbbbbbbbbbbbbbbbbbbbbbbbbbbbbbbbbbbbbbbbcbht7uO ",
" *Vkxbbbbbbbbbbbbbbbbbbbbbbbbbbbbbbbbbbbbbbbbbbbbbbbcbht7uO ",
" *Vkxbbbbbbbbbbbbbbbbbbbbbbbbbbbbbbbbbbbbbbbbbbbbbbbcbht7uO ",
" *Vkxbbbbbbbbbbbbbbbbbbbbbbbbbbbbbbbbbbbbbbbbbbbbbbbcbht7uO ",
" *Vkxbbbbbbbbbbbbbbbbbbbbbbbbbbbbbbbbbbbbbbbbbbbbbbbcbht7uO ",
" *Vkxbbbbbbbbbbbbbbbbbbbbbbbbbbbbbbbbbbbbbbbbbbbbbbbcbht7uO ",
" *Vkxbbbbbbbbbbbbbbbbbbbbbbbbbbbbbbbbbbbbbbbbbbbbbbbcbht7uO ",
" *Vkxbbbbbbbbbbbbbbbbbbbbbbbbbbbbbbbbbbbbbbbbbbbbbbbcbht7uO ",
" *Vkxbbbbbbbbbbbbbbbbbbbbbbbbbbbbbbbbbbbbbbbbbbbbbbbcbht7uO ",
" *Vkxbbbbbbbbbbbbbbbbbbbbbbbbbbbbbbbbbbbbbbbbbbbbbbbcbht7uO ",
" *Vkxbbbbbbbbbbbbbbbbbbbbbbbbbbbbbbbbbbbbbbbbbbbbbbbcbht7uO ",
" *Vkxbbbbbbbbbbbbbbbbbbbbbbbbbbbbbbbbbbbbbbbbbbbbbbbcbht7uO ",
" *Vkxbbbbbbbbbbbbbbbbbbbbbbbbbbbbbbbbbbbbbbbbbbbbbbbcbht7uO ",
" *Vkxbbbbbbbbbbbbbbbbbbbbbbbbbbbbbbbbbbbbbbbbbbbbbbbcbht7uO ",
" *Vkxbbbbbbbbbbbbbbbbbbbbbbbbbbbbbbbbbbbbbbbbbbbbbbbcbht7uO ",
" *Vkxbbbbbbbbbbbbbbbbbbbbbbbbbbbbbbbbbbbbbbbbbbbbbbbcbht7uO ",
" *Vkxbbbbbbbbbbbbbbbbbbbbbbbbbbbbbbbbbbbbbbbbbbbbbbbcbht7uO ",
" *Vkxbbbbbbbbbbbbbbbbbbbbbbbbbbbbbbbbbbbbbbbbbbbbbbbcbht7uO ",
" *Vkxbbbbbbbbbbbbbbbbbbbbbbbbbbbbbbbbbbbbbbbbbbbbbbbcbht7uO ",
" *Vkxbbbbbbbbbbbbbbbbbbbbbbbbbbbbbbbbbbbbbbbbbbbbbbbcbht7u; ",
" *Vkxbbbbbbbbbbbbbbbbbbbbbbbbbbbbbbbbbbbbbbbbbbbbbbbcbht7uO ",
" *Vkxbbbbbbbbbbbbbbbbbbbbbbbbbbbbbbbbbbbbbbbbbbbbbbbcbht6p, ",
" *Vkxbbbbbbbbbbbbbbbbbbbbbbbbbbbbbbbbbbbbbbbbbbbbbbbcbhy905S",
" *Vkxbbbbbbbbbbbbbbbbbbbbbbbbbbbbbbbbbbbbbbbbbbbbbbbcbhy8q3S",
" *Vkxbbbbbbbbbbbbbbbbbbbbbbbbbbbbbbbbbbbbbbbbbbbbbbbcbht7i> ",
" *Vkxxxxxxxxxxxxxxxxxxxxxxxxxxxxxxxxxxxxxxxxxxxxxxxxxvgt7u+ ",
" &Njkkkkkkkkkkkkkkkkkkkkkkkkkkkkkkkkkkkkkkkkkkkkkkkkkkfr4e+ ",
" -AMBVVVVVVVVVVVVVVVVVVVVVVVVVVVVVVVVVVVVVVVVVVVVVVVVCmaws# ",
" o1&**************************************************%@O:X ",
"                                                            "
};
